<?xml version="1.0" encoding="UTF-8" standalone="no"?>
<!-- Created with Inkscape (http://www.inkscape.org/) -->

<svg
   width="210mm"
   height="297mm"
   viewBox="0 0 210 297"
   version="1.1"
   id="svg5"
   inkscape:version="1.1.1 (3bf5ae0d25, 2021-09-20)"
   sodipodi:docname="drawing.svg"
   xmlns:inkscape="http://www.inkscape.org/namespaces/inkscape"
   xmlns:sodipodi="http://sodipodi.sourceforge.net/DTD/sodipodi-0.dtd"
   xmlns="http://www.w3.org/2000/svg"
   xmlns:svg="http://www.w3.org/2000/svg">
  <sodipodi:namedview
     id="namedview7"
     pagecolor="#ffffff"
     bordercolor="#666666"
     borderopacity="1.0"
     inkscape:pageshadow="2"
     inkscape:pageopacity="0.0"
     inkscape:pagecheckerboard="0"
     inkscape:document-units="mm"
     showgrid="false"
     inkscape:zoom="0.37795691"
     inkscape:cx="197.11242"
     inkscape:cy="529.16085"
     inkscape:window-width="1440"
     inkscape:window-height="844"
     inkscape:window-x="0"
     inkscape:window-y="0"
     inkscape:window-maximized="1"
     inkscape:current-layer="layer1" />
  <defs
     id="defs2" />
  <g
     inkscape:label="Layer 1"
     inkscape:groupmode="layer"
     id="layer1">
    <rect
       style="fill:#0000ff;stroke-width:0.312804"
       id="rect49"
       width="219.68294"
       height="56.19516"
       x="-0.92686331"
       y="-0.092313759" />
    <g
       id="g25"
       transform="matrix(1.4749386,0,0,1.4749386,-56.251033,-16.694107)">
      <path
         d="m 56.640104,30.305406 c -0.198411,-0.710514 -0.5775,-1.381123 -1.136156,-1.938671 -1.731391,-1.731391 -4.539082,-1.732499 -6.270473,0 l -5.540007,5.540008 c -1.731391,1.732499 -1.7325,4.539082 0,6.270473 1.731391,1.732499 4.54019,1.730282 6.269364,0 l 4.258645,-4.257537 0.369113,0.01 c 0.447811,0 0.888972,-0.04434 1.317941,-0.129688 l -5.162028,5.160919 c -1.080734,1.081843 -2.499544,1.622764 -3.918353,1.622764 -1.41881,0 -2.837619,-0.540921 -3.918353,-1.622764 -2.163684,-2.162576 -2.163684,-5.675238 0,-7.837814 l 5.540008,-5.540007 c 1.080734,-1.081842 2.500652,-1.622763 3.919461,-1.622763 1.417701,0 2.837619,0.540921 3.918353,1.622763 0.546463,0.546463 0.954371,1.178277 1.224831,1.85332 z m -6.321461,0.162941 c 0.197303,0.71273 0.5775,1.385556 1.137264,1.946429 1.731391,1.7325 4.540191,1.730283 6.269365,0 l 5.541116,-5.540007 c 1.732499,-1.731391 1.732499,-4.539082 0,-6.270473 -1.731391,-1.731391 -4.539082,-1.7325 -6.270473,0 l -4.257537,4.257537 -0.369112,-0.01 c -0.447812,0 -0.888973,0.04434 -1.317941,0.129688 l 5.160919,-5.16092 c 1.080734,-1.081842 2.500652,-1.622763 3.919462,-1.622763 1.417701,0 2.837619,0.540921 3.918352,1.622763 2.162576,2.162576 2.162576,5.67413 0,7.837814 l -5.541116,5.540008 c -1.080733,1.081842 -2.499543,1.622763 -3.918352,1.622763 -1.41881,0 -2.837619,-0.540921 -3.918353,-1.622763 -0.547572,-0.54868 -0.956588,-1.182711 -1.227049,-1.859971 z"
         id="path51"
         style="clip-rule:evenodd;fill:#ffffff;fill-rule:evenodd;stroke-width:1.10844" />
      <text
         xml:space="preserve"
         style="font-style:normal;font-variant:normal;font-weight:normal;font-stretch:normal;font-size:30.6884px;line-height:1.25;font-family:Cantarell;-inkscape-font-specification:Cantarell;fill:#ffffff;fill-opacity:1;stroke:none;stroke-width:0.767209"
         x="66.140587"
         y="41.046265"
         id="text2362"
         inkscape:export-filename="/home/parthka/Projects/linka-front/public/assets/img/brand/g60.png"
         inkscape:export-xdpi="96"
         inkscape:export-ydpi="96"><tspan
           sodipodi:role="line"
           id="tspan2360"
           style="font-style:normal;font-variant:normal;font-weight:normal;font-stretch:normal;font-family:Cantarell;-inkscape-font-specification:Cantarell;fill:#ffffff;stroke-width:0.767209"
           x="66.140587"
           y="41.046265">LinkyFlix</tspan></text>
    </g>
    <rect
       style="fill:none;stroke-width:0.312804"
       id="rect96"
       width="219.68294"
       height="56.19516"
       x="1.1732445"
       y="70.236664"
       inkscape:export-filename="/home/parthka/Projects/linka-front/public/assets/img/brand/g60.png"
       inkscape:export-xdpi="96"
       inkscape:export-ydpi="96" />
    <g
       id="g104"
       transform="matrix(1.4749386,0,0,1.4749386,-54.150926,53.634872)"
       inkscape:export-filename="/home/parthka/Projects/linka-front/public/assets/img/brand/g60.png"
       inkscape:export-xdpi="96"
       inkscape:export-ydpi="96">
      <path
         d="m 56.640104,30.305406 c -0.198411,-0.710514 -0.5775,-1.381123 -1.136156,-1.938671 -1.731391,-1.731391 -4.539082,-1.732499 -6.270473,0 l -5.540007,5.540008 c -1.731391,1.732499 -1.7325,4.539082 0,6.270473 1.731391,1.732499 4.54019,1.730282 6.269364,0 l 4.258645,-4.257537 0.369113,0.01 c 0.447811,0 0.888972,-0.04434 1.317941,-0.129688 l -5.162028,5.160919 c -1.080734,1.081843 -2.499544,1.622764 -3.918353,1.622764 -1.41881,0 -2.837619,-0.540921 -3.918353,-1.622764 -2.163684,-2.162576 -2.163684,-5.675238 0,-7.837814 l 5.540008,-5.540007 c 1.080734,-1.081842 2.500652,-1.622763 3.919461,-1.622763 1.417701,0 2.837619,0.540921 3.918353,1.622763 0.546463,0.546463 0.954371,1.178277 1.224831,1.85332 z m -6.321461,0.162941 c 0.197303,0.71273 0.5775,1.385556 1.137264,1.946429 1.731391,1.7325 4.540191,1.730283 6.269365,0 l 5.541116,-5.540007 c 1.732499,-1.731391 1.732499,-4.539082 0,-6.270473 -1.731391,-1.731391 -4.539082,-1.7325 -6.270473,0 l -4.257537,4.257537 -0.369112,-0.01 c -0.447812,0 -0.888973,0.04434 -1.317941,0.129688 l 5.160919,-5.16092 c 1.080734,-1.081842 2.500652,-1.622763 3.919462,-1.622763 1.417701,0 2.837619,0.540921 3.918352,1.622763 2.162576,2.162576 2.162576,5.67413 0,7.837814 l -5.541116,5.540008 c -1.080733,1.081842 -2.499543,1.622763 -3.918352,1.622763 -1.41881,0 -2.837619,-0.540921 -3.918353,-1.622763 -0.547572,-0.54868 -0.956588,-1.182711 -1.227049,-1.859971 z"
         id="path98"
         style="clip-rule:evenodd;fill:#ffffff;fill-rule:evenodd;stroke-width:1.10844" />
      <text
         xml:space="preserve"
         style="font-style:normal;font-variant:normal;font-weight:normal;font-stretch:normal;font-size:30.6884px;line-height:1.25;font-family:Cantarell;-inkscape-font-specification:Cantarell;fill:#ffffff;fill-opacity:1;stroke:none;stroke-width:0.767209"
         x="66.140587"
         y="41.046265"
         id="text102"
         inkscape:export-filename="/home/parthka/Projects/linka-front/public/assets/img/brand/g60.png"
         inkscape:export-xdpi="96"
         inkscape:export-ydpi="96"><tspan
           sodipodi:role="line"
           id="tspan100"
           style="font-style:normal;font-variant:normal;font-weight:normal;font-stretch:normal;font-family:Cantarell;-inkscape-font-specification:Cantarell;fill:#ffffff;stroke-width:0.767209"
           x="66.140587"
           y="41.046265">LinkyFlix</tspan></text>
    </g>
    <rect
       style="fill:#0000ff;stroke-width:0.312804"
       id="rect16"
       width="219.683"
       height="56.19516"
       x="-0.038145587"
       y="143.29196" />
    <g
       id="g24"
       transform="matrix(1.4749386,0,0,1.4749386,-55.362316,126.69016)"
       style="fill:#6772e5;fill-opacity:1">
      <path
         d="m 56.640104,30.305406 c -0.198411,-0.710514 -0.5775,-1.381123 -1.136156,-1.938671 -1.731391,-1.731391 -4.539082,-1.732499 -6.270473,0 l -5.540007,5.540008 c -1.731391,1.732499 -1.7325,4.539082 0,6.270473 1.731391,1.732499 4.54019,1.730282 6.269364,0 l 4.258645,-4.257537 0.369113,0.01 c 0.447811,0 0.888972,-0.04434 1.317941,-0.129688 l -5.162028,5.160919 c -1.080734,1.081843 -2.499544,1.622764 -3.918353,1.622764 -1.41881,0 -2.837619,-0.540921 -3.918353,-1.622764 -2.163684,-2.162576 -2.163684,-5.675238 0,-7.837814 l 5.540008,-5.540007 c 1.080734,-1.081842 2.500652,-1.622763 3.919461,-1.622763 1.417701,0 2.837619,0.540921 3.918353,1.622763 0.546463,0.546463 0.954371,1.178277 1.224831,1.85332 z m -6.321461,0.162941 c 0.197303,0.71273 0.5775,1.385556 1.137264,1.946429 1.731391,1.7325 4.540191,1.730283 6.269365,0 l 5.541116,-5.540007 c 1.732499,-1.731391 1.732499,-4.539082 0,-6.270473 -1.731391,-1.731391 -4.539082,-1.7325 -6.270473,0 l -4.257537,4.257537 -0.369112,-0.01 c -0.447812,0 -0.888973,0.04434 -1.317941,0.129688 l 5.160919,-5.16092 c 1.080734,-1.081842 2.500652,-1.622763 3.919462,-1.622763 1.417701,0 2.837619,0.540921 3.918352,1.622763 2.162576,2.162576 2.162576,5.67413 0,7.837814 l -5.541116,5.540008 c -1.080733,1.081842 -2.499543,1.622763 -3.918352,1.622763 -1.41881,0 -2.837619,-0.540921 -3.918353,-1.622763 -0.547572,-0.54868 -0.956588,-1.182711 -1.227049,-1.859971 z"
         id="path18"
         style="clip-rule:evenodd;fill:#6772e5;fill-rule:evenodd;stroke-width:1.10844;fill-opacity:1" />
      <text
         xml:space="preserve"
         style="font-style:normal;font-variant:normal;font-weight:normal;font-stretch:normal;font-size:30.6884px;line-height:1.25;font-family:Cantarell;-inkscape-font-specification:Cantarell;fill:#6772e5;fill-opacity:1;stroke:none;stroke-width:0.767209"
         x="66.140587"
         y="41.046265"
         id="text22"
         inkscape:export-filename="/home/parthka/Projects/linka-front/public/assets/img/brand/g60.png"
         inkscape:export-xdpi="96"
         inkscape:export-ydpi="96"><tspan
           sodipodi:role="line"
           id="tspan20"
           style="font-style:normal;font-variant:normal;font-weight:normal;font-stretch:normal;font-family:Cantarell;-inkscape-font-specification:Cantarell;fill:#6772e5;stroke-width:0.767209;fill-opacity:1"
           x="66.140587"
           y="41.046265">LinkyFlix</tspan></text>
    </g>
    <rect
       style="fill:none;stroke-width:0.312804"
       id="rect4317"
       width="219.683"
       height="56.19516"
       x="0.73572201"
       y="217.1767"
       inkscape:export-filename="/home/parthka/Projects/linka-front/public/assets/img/brand/g61.png"
       inkscape:export-xdpi="96"
       inkscape:export-ydpi="96" />
    <g
       id="g4325"
       transform="matrix(1.4749386,0,0,1.4749386,-54.588448,200.57489)"
       style="fill:#6772e5;fill-opacity:1"
       inkscape:export-filename="/home/parthka/Projects/linka-front/public/assets/img/brand/g61.png"
       inkscape:export-xdpi="96"
       inkscape:export-ydpi="96">
      <path
         d="m 56.640104,30.305406 c -0.198411,-0.710514 -0.5775,-1.381123 -1.136156,-1.938671 -1.731391,-1.731391 -4.539082,-1.732499 -6.270473,0 l -5.540007,5.540008 c -1.731391,1.732499 -1.7325,4.539082 0,6.270473 1.731391,1.732499 4.54019,1.730282 6.269364,0 l 4.258645,-4.257537 0.369113,0.01 c 0.447811,0 0.888972,-0.04434 1.317941,-0.129688 l -5.162028,5.160919 c -1.080734,1.081843 -2.499544,1.622764 -3.918353,1.622764 -1.41881,0 -2.837619,-0.540921 -3.918353,-1.622764 -2.163684,-2.162576 -2.163684,-5.675238 0,-7.837814 l 5.540008,-5.540007 c 1.080734,-1.081842 2.500652,-1.622763 3.919461,-1.622763 1.417701,0 2.837619,0.540921 3.918353,1.622763 0.546463,0.546463 0.954371,1.178277 1.224831,1.85332 z m -6.321461,0.162941 c 0.197303,0.71273 0.5775,1.385556 1.137264,1.946429 1.731391,1.7325 4.540191,1.730283 6.269365,0 l 5.541116,-5.540007 c 1.732499,-1.731391 1.732499,-4.539082 0,-6.270473 -1.731391,-1.731391 -4.539082,-1.7325 -6.270473,0 l -4.257537,4.257537 -0.369112,-0.01 c -0.447812,0 -0.888973,0.04434 -1.317941,0.129688 l 5.160919,-5.16092 c 1.080734,-1.081842 2.500652,-1.622763 3.919462,-1.622763 1.417701,0 2.837619,0.540921 3.918352,1.622763 2.162576,2.162576 2.162576,5.67413 0,7.837814 l -5.541116,5.540008 c -1.080733,1.081842 -2.499543,1.622763 -3.918352,1.622763 -1.41881,0 -2.837619,-0.540921 -3.918353,-1.622763 -0.547572,-0.54868 -0.956588,-1.182711 -1.227049,-1.859971 z"
         id="path4319"
         style="clip-rule:evenodd;fill:#6772e5;fill-opacity:1;fill-rule:evenodd;stroke-width:1.10844" />
      <text
         xml:space="preserve"
         style="font-style:normal;font-variant:normal;font-weight:normal;font-stretch:normal;font-size:30.6884px;line-height:1.25;font-family:Cantarell;-inkscape-font-specification:Cantarell;fill:#6772e5;fill-opacity:1;stroke:none;stroke-width:0.767209"
         x="66.140587"
         y="41.046265"
         id="text4323"
         inkscape:export-filename="/home/parthka/Projects/linka-front/public/assets/img/brand/g60.png"
         inkscape:export-xdpi="96"
         inkscape:export-ydpi="96"><tspan
           sodipodi:role="line"
           id="tspan4321"
           style="font-style:normal;font-variant:normal;font-weight:normal;font-stretch:normal;font-family:Cantarell;-inkscape-font-specification:Cantarell;fill:#6772e5;fill-opacity:1;stroke-width:0.767209"
           x="66.140587"
           y="41.046265">LinkyFlix</tspan></text>
    </g>
  </g>
</svg>
